# xmcd CD database file
#
# Track frame offsets:
#	150
#	22301
#	37805
#	56269
#	71345
#	90777
#	113248
#	133039
#	147621
#	164553
#
# Disc length: 2407 seconds
#
# Revision: 0
# Processed by: cddbd v1.5.1PL2 Copyright (c) Steve Scherf et al.
# Submitted via: CDex 1.51
#
DISCID=8509650a
DTITLE=Grupa Balans - Ljubavne price
DYEAR=2004
DGENRE=Narodne
TTITLE0=Hej, zenim se ja
TTITLE1=Koliko te srce boli
TTITLE2=Vrati se majko
TTITLE3=Zbogom nevjernice
TTITLE4=Zaboravi
TTITLE5=Tiho Kupa nocas tece
TTITLE6=Nije meni zao mene
TTITLE7=Ej skidaj majko
TTITLE8=Kako mi nedostajes
TTITLE9=Nikad vise
EXTD=YEAR: 2004
EXTT0=
EXTT1=
EXTT2=
EXTT3=
EXTT4=
EXTT5=
EXTT6=
EXTT7=
EXTT8=
EXTT9=
PLAYORDER=
